<?xml version="1.0" encoding="UTF-8"?>
<svg id="Isolation_Mode" xmlns="http://www.w3.org/2000/svg" viewBox="0 0 30.33 13.68">
  <defs>
    <style>
      .cls-1 {
        stroke: #0d72ba;
      }

      .cls-1, .cls-2, .cls-3, .cls-4, .cls-5, .cls-6, .cls-7, .cls-8, .cls-9, .cls-10, .cls-11 {
        stroke-miterlimit: 10;
      }

      .cls-1, .cls-2, .cls-3, .cls-5, .cls-7, .cls-8, .cls-9, .cls-10 {
        fill: none;
      }

      .cls-1, .cls-5 {
        stroke-width: .27px;
      }

      .cls-12 {
        fill: #010101;
      }

      .cls-13 {
        fill: #7d7b7b;
      }

      .cls-2 {
        stroke-width: .21px;
      }

      .cls-2, .cls-3, .cls-7, .cls-8, .cls-9, .cls-10 {
        stroke: #ecb122;
      }

      .cls-3 {
        stroke-width: .21px;
      }

      .cls-14, .cls-15 {
        fill: #231f20;
      }

      .cls-16 {
        fill: #f26522;
      }

      .cls-4 {
        stroke-width: .04px;
      }

      .cls-4, .cls-6 {
        fill: #c7c6c5;
      }

      .cls-4, .cls-6, .cls-11 {
        stroke: #231f20;
      }

      .cls-5 {
        stroke: #f26522;
      }

      .cls-6 {
        stroke-width: .07px;
      }

      .cls-7 {
        stroke-width: .06px;
      }

      .cls-8 {
        stroke-width: .09px;
      }

      .cls-9 {
        stroke-width: .03px;
      }

      .cls-17 {
        opacity: .5;
      }

      .cls-10 {
        stroke-width: .11px;
      }

      .cls-11 {
        fill: #fff;
        stroke-width: .18px;
      }

      .cls-18 {
        fill: #0d72ba;
      }

      .cls-15 {
        font-family: LatinModernMath-Regular, 'Latin Modern Math';
        font-size: 1.07px;
      }

      .cls-19 {
        fill: #ecb122;
      }
    </style>
  </defs>
  <path class="cls-5" d="M19.79,2.7c.48-.08,6.08-.8,7.03-.93-.79.7-6.42,3.05-7.05,2.86"/>
  <path class="cls-5" d="M18.7,8.46c.26.67,5.96,1.78,7.39,1.67-1.58-.33-5.82-2.29-6.46-3.14"/>
  <g>
    <path class="cls-12" d="M27.04,4.6c0-.08-.03-.15-.09-.2-.06-.05-.12-.08-.2-.08-.05,0-.1.01-.14.04-.05.02-.08.06-.11.11-.02.05-.04.09-.04.14,0,.08.03.14.09.2.06.06.12.09.2.09s.14-.03.2-.09c.06-.06.09-.12.09-.2Z"/>
    <path class="cls-12" d="M27.04,6c0-.08-.03-.15-.09-.2-.06-.05-.12-.08-.2-.08-.05,0-.1.01-.14.04-.05.02-.08.06-.11.11-.02.05-.04.09-.04.14,0,.08.03.14.09.2.06.06.12.09.2.09s.14-.03.2-.09c.06-.06.09-.12.09-.2Z"/>
    <path class="cls-12" d="M27.04,7.4c0-.08-.03-.15-.09-.2-.06-.05-.12-.08-.2-.08-.05,0-.1.01-.14.04-.05.02-.08.06-.11.11-.02.05-.04.09-.04.14,0,.08.03.14.09.2.06.06.12.09.2.09s.14-.03.2-.09c.06-.06.09-.12.09-.2Z"/>
  </g>
  <circle class="cls-6" cx="26.66" cy="1.76" r=".68"/>
  <circle class="cls-6" cx="26.75" cy="10.22" r=".68"/>
  <path class="cls-1" d="M9.97,2.7c-.48-.08-6.08-.8-7.03-.93.79.7,6.42,3.05,7.05,2.86"/>
  <path class="cls-1" d="M11.06,8.46c-.26.67-5.96,1.78-7.39,1.67,1.58-.33,5.82-2.29,6.46-3.14"/>
  <path class="cls-18" d="M6.69,1.67l.56.59.14.09-.14.06-.56.46,1.14-.47-1.13-.73ZM7.24,2.4l-.56.46.5-.4.06-.07ZM6.68,2.87l.5-.4.06-.21-.05-.08-.51.69ZM6.69,1.67l.56.59-.05-.08-.51-.51ZM7.6,2.37l-.64-.41.22.36-.22.31.64-.26Z"/>
  <path class="cls-18" d="M7.32,3.14l.51.8.15.15h-.21s-.94.15-.94.15l1.71.1-1.23-1.2ZM7.77,4.08l-.94.16.82-.13.11-.03ZM6.84,4.24l.82-.13.17-.17-.03-.1-.96.39ZM7.32,3.14l.51.8-.03-.1-.48-.71ZM8.27,4.22l-.69-.67.15.44-.43.18.96.06Z"/>
  <path class="cls-18" d="M7.03,8.19l.95.09.21-.03-.14.16-.44.84,1.13-1.29-1.7.23ZM8.05,8.41l-.44.84.4-.73.04-.11ZM7.6,9.25l.4-.73-.03-.24-.1-.03-.28,1ZM7.03,8.19l.95.09-.1-.03-.85-.06ZM8.46,8.1l-.95.13.44.15-.12.45.63-.73Z"/>
  <circle class="cls-11" cx="14.98" cy="6.19" r="6.1"/>
  <path class="cls-16" d="M21.04,1.92l.92.41.22.04-.19.11-.73.69,1.57-.92-1.78-.34ZM21.99,2.49l-.73.69.65-.6.08-.09ZM21.26,3.18l.65-.6.05-.25-.09-.06-.62.91ZM21.04,1.92l.92.41-.09-.06-.83-.34ZM22.5,2.32l-1-.19.39.3-.27.41.88-.52Z"/>
  <path class="cls-16" d="M22.53,3.23l1,.12.22-.02-.15.16-.5.87,1.23-1.33-1.8.19ZM23.6,3.49l-.5.87.45-.76.05-.11ZM23.1,4.37l.45-.76-.02-.25-.1-.04-.33,1.05ZM22.53,3.23l1,.12-.1-.04-.9-.09ZM24.04,3.18l-1.01.11.46.17-.14.47.69-.75Z"/>
  <path class="cls-16" d="M21.7,7.66l.54.85.16.16h-.22s-.99.17-.99.17l1.81.1-1.3-1.26ZM22.18,8.65l-.99.18.87-.14.12-.03ZM21.19,8.83l.87-.14.18-.18-.04-.1-1.02.42ZM21.7,7.66l.54.85-.04-.1-.51-.75ZM22.7,8.8l-.73-.71.16.46-.45.19,1.02.05Z"/>
  <path class="cls-16" d="M21.91,9.17l.82.58.21.08-.21.07-.85.54,1.71-.6-1.68-.68ZM22.73,9.91l-.85.54.75-.46.1-.08ZM21.88,10.45l.75-.46.1-.23-.07-.08-.78.78ZM21.91,9.17l.82.58-.07-.08-.75-.5ZM23.27,9.84l-.95-.38.33.37-.34.35.96-.34Z"/>
  <path class="cls-13" d="M10.85,12.48s0,0,0,0c0,0,0,0,0,0Z"/>
  <path class="cls-18" d="M6.29,9.42l.91.27h.21s-.17.14-.17.14l-.6.74,1.35-1.05-1.71-.1ZM7.24,9.83l-.6.74.53-.64.06-.1ZM6.64,10.57l.53-.64.02-.24-.09-.05-.46.93ZM6.29,9.42l.91.27-.09-.05-.82-.22ZM7.7,9.61l-.96-.05.4.23-.2.42.76-.59Z"/>
  <g>
    <path class="cls-12" d="M2.73,4.6c0-.08.03-.15.09-.2.06-.05.12-.08.2-.08.05,0,.1.01.14.04.05.02.08.06.11.11.02.05.04.09.04.14,0,.08-.03.14-.09.2-.06.06-.12.09-.2.09s-.14-.03-.2-.09c-.06-.06-.09-.12-.09-.2Z"/>
    <path class="cls-12" d="M2.73,6c0-.08.03-.15.09-.2.06-.05.12-.08.2-.08.05,0,.1.01.14.04.05.02.08.06.11.11.02.05.04.09.04.14,0,.08-.03.14-.09.2-.06.06-.12.09-.2.09s-.14-.03-.2-.09c-.06-.06-.09-.12-.09-.2Z"/>
    <path class="cls-12" d="M2.73,7.4c0-.08.03-.15.09-.2.06-.05.12-.08.2-.08.05,0,.1.01.14.04.05.02.08.06.11.11.02.05.04.09.04.14,0,.08-.03.14-.09.2-.06.06-.12.09-.2.09s-.14-.03-.2-.09c-.06-.06-.09-.12-.09-.2Z"/>
  </g>
  <g>
    <g>
      <g>
        <path class="cls-7" d="M12.89,9.86c-.74-1.03-1.17-2.1-1.33-3.21"/>
        <polygon class="cls-19" points="11.52 6.25 11.83 6.78 11.58 6.68 11.38 6.84 11.52 6.25"/>
      </g>
      <g>
        <line class="cls-3" x1="14.78" y1="1.9" x2="17.05" y2="3.49"/>
        <polygon class="cls-19" points="18.25 4.33 16.07 3.84 16.96 3.42 17.04 2.45 18.25 4.33"/>
      </g>
      <g>
        <path class="cls-10" d="M17.43,9.53c-.74,3.61-4.1.2-1.83-.21"/>
        <polygon class="cls-19" points="16.4 9.29 15.31 9.83 15.54 9.35 15.24 8.91 16.4 9.29"/>
      </g>
      <g class="cls-17">
        <g>
          <path class="cls-8" d="M19,5.13c-2.1.32-4.15.32-6.11-.2"/>
          <polygon class="cls-19" points="12.32 4.77 13.22 4.63 12.95 4.92 13.06 5.31 12.32 4.77"/>
        </g>
      </g>
      <g>
        <path class="cls-10" d="M11.3,5.16c-.04-1.03.66-1.8,1.82-2.4"/>
        <polygon class="cls-19" points="13.85 2.43 13.04 3.34 13.08 2.81 12.63 2.51 13.85 2.43"/>
      </g>
      <g>
        <path class="cls-2" d="M11.3,5.16c1.31.65,3.71,1.52,5.67.88"/>
        <polygon class="cls-19" points="18.02 5.52 16.81 6.81 16.88 6.04 16.25 5.59 18.02 5.52"/>
      </g>
      <g>
        <path class="cls-10" d="M17.46,9.51c-1.75-1.1-3.9-2.21-4.91-2.96"/>
        <polygon class="cls-19" points="11.99 5.98 13.12 6.44 12.6 6.58 12.47 7.1 11.99 5.98"/>
      </g>
      <g>
        <path class="cls-3" d="M12.89,9.86c1.16-1.73,1.75-3.54,1.72-5.46"/>
        <polygon class="cls-19" points="14.46 2.94 15.48 4.93 14.6 4.52 13.8 5.08 14.46 2.94"/>
      </g>
      <g>
        <path class="cls-9" d="M12.89,9.86c2.39-1.19,4.18-2.47,5.18-3.89"/>
        <polygon class="cls-19" points="18.19 5.81 18.1 6.1 18.05 5.98 17.92 5.96 18.19 5.81"/>
      </g>
      <g>
        <path class="cls-10" d="M17.46,9.51c-1.73-1.67-.77-3.78-1.96-5.9"/>
        <polygon class="cls-19" points="15.05 2.94 16.04 3.64 15.51 3.67 15.27 4.14 15.05 2.94"/>
      </g>
      <g>
        <line class="cls-2" x1="19" y1="5.13" x2="18.21" y2="7.5"/>
        <polygon class="cls-19" points="17.92 8.36 17.83 6.98 18.23 7.43 18.83 7.31 17.92 8.36"/>
      </g>
    </g>
    <g>
      <g>
        <circle class="cls-4" cx="14.81" cy="1.92" r="1.06"/>
        <path class="cls-14" d="M15.09,1.62c-.07,0-.1-.05-.1-.09,0-.07.06-.13.13-.14,0,0-.04-.03-.11-.03-.11,0-.18.07-.21.08-.06.06-.13.18-.14.21l-.08.33s-.1.39-.1.41c-.02.05-.06.07-.1.07-.04,0-.07-.02-.07-.07,0-.01.02-.07.02-.11l.15-.59c.03-.13.04-.16.04-.22,0-.1-.04-.12-.08-.12-.09,0-.14.12-.19.31-.02.06-.02.06-.04.06,0,0-.03,0-.03-.03,0,0,.03-.16.08-.25.02-.05.07-.15.19-.15s.21.08.23.2c.05-.07.16-.2.33-.2.13,0,.21.08.21.17s-.07.15-.14.15Z"/>
        <text class="cls-15" transform="translate(14.71 2.63)"><tspan x="0" y="0">1</tspan></text>
      </g>
      <g>
        <circle class="cls-4" cx="19" cy="5.11" r="1.06"/>
        <path class="cls-14" d="M19.29,4.65c-.07,0-.1-.05-.1-.09,0-.07.06-.13.13-.14,0,0-.04-.03-.11-.03-.11,0-.18.07-.21.08-.06.06-.13.18-.14.21l-.08.33s-.1.39-.1.41c-.02.05-.06.07-.1.07-.04,0-.07-.02-.07-.07,0-.01.02-.07.02-.11l.15-.59c.03-.13.04-.16.04-.22,0-.1-.04-.12-.08-.12-.09,0-.14.12-.19.31-.02.06-.02.06-.04.06,0,0-.03,0-.03-.03,0,0,.03-.16.08-.25.02-.05.07-.15.19-.15s.21.08.23.2c.05-.07.16-.2.33-.2.13,0,.21.08.21.17s-.07.15-.14.15Z"/>
        <path class="cls-14" d="M19.35,5.82h-.4s0-.03.01-.04l.2-.23c.06-.07.11-.15.11-.24s-.05-.17-.14-.17c-.06,0-.12.04-.14.11,0,0,0,0,.01,0,.04,0,.06.03.06.06,0,.04-.04.06-.06.06,0,0-.06,0-.06-.06,0-.09.08-.19.2-.19.13,0,.23.09.23.21,0,.11-.06.16-.23.31l-.11.11h.19s.09,0,.1,0c.01-.02.02-.06.02-.1h.03l-.03.19Z"/>
      </g>
      <g>
        <circle class="cls-4" cx="11.31" cy="5.18" r="1.06"/>
        <path class="cls-14" d="M11.6,4.73c-.07,0-.1-.05-.1-.09,0-.07.06-.13.13-.14,0,0-.04-.03-.11-.03-.11,0-.18.07-.21.08-.06.06-.13.18-.14.21l-.08.33s-.1.39-.1.41c-.02.05-.06.07-.1.07-.04,0-.07-.02-.07-.07,0-.01.02-.07.02-.11l.15-.59c.03-.13.04-.16.04-.22,0-.1-.04-.12-.08-.12-.09,0-.14.12-.19.31-.02.06-.02.06-.04.06,0,0-.03,0-.03-.03,0,0,.03-.16.08-.25.02-.05.07-.15.19-.15s.21.08.23.2c.05-.07.16-.2.33-.2.13,0,.21.08.21.17s-.07.15-.14.15Z"/>
        <text class="cls-15" transform="translate(11.21 5.89)"><tspan x="0" y="0">3</tspan></text>
      </g>
      <g>
        <circle class="cls-4" cx="17.47" cy="9.37" r="1.06"/>
        <path class="cls-14" d="M17.76,8.92c-.07,0-.1-.05-.1-.09,0-.07.06-.13.13-.14,0,0-.04-.03-.11-.03-.11,0-.18.07-.21.08-.06.06-.13.18-.14.21l-.08.33s-.1.39-.1.41c-.02.05-.06.07-.1.07-.04,0-.07-.02-.07-.07,0-.01.02-.07.02-.11l.15-.59c.03-.13.04-.16.04-.22,0-.1-.04-.12-.08-.12-.09,0-.14.12-.19.31-.02.06-.02.06-.04.06,0,0-.03,0-.03-.03,0,0,.03-.16.08-.25.02-.05.07-.15.19-.15s.21.08.23.2c.05-.07.16-.2.33-.2.13,0,.21.08.21.17s-.07.15-.14.15Z"/>
        <path class="cls-14" d="M18.1,9.55s-.04,0-.05,0c-.02,0-.02,0-.02.02l-.13.5s0,.02-.02.02c-.01,0-.02,0-.03-.02l-.3-.5-.12.47s.05,0,.06,0c.01,0,.03,0,.03.02,0,.02-.02.02-.02.02-.02,0-.08,0-.1,0-.03,0-.06,0-.09,0-.02,0-.02-.01-.02-.02,0-.02.01-.02.03-.02,0,0,.03,0,.05,0,.02,0,.02,0,.03-.02l.12-.46s0,0,0-.01c0,0,0,0-.04,0h-.02s-.03,0-.03-.02c0-.02.01-.02.03-.02h.16s.02,0,.03.01l.24.4.09-.37s-.05,0-.06,0c-.01,0-.03,0-.03-.02,0-.02.02-.02.02-.02.02,0,.08,0,.1,0,.03,0,.06,0,.09,0,.01,0,.02,0,.02.02,0,.02-.01.02-.03.02Z"/>
      </g>
      <g>
        <circle class="cls-4" cx="12.93" cy="9.7" r="1.06"/>
        <path class="cls-14" d="M13.22,9.25c-.07,0-.1-.05-.1-.09,0-.07.06-.13.13-.14,0,0-.04-.03-.11-.03-.11,0-.18.07-.21.08-.06.06-.13.18-.14.21l-.08.33s-.1.39-.1.41c-.02.05-.06.07-.1.07-.04,0-.07-.02-.07-.07,0-.01.02-.07.02-.11l.15-.59c.03-.13.04-.16.04-.22,0-.1-.04-.12-.08-.12-.09,0-.14.12-.19.31-.02.06-.02.06-.04.06,0,0-.03,0-.03-.03,0,0,.03-.16.08-.25.02-.05.07-.15.19-.15s.21.08.23.2c.05-.07.16-.2.33-.2.13,0,.21.08.21.17s-.07.15-.14.15Z"/>
        <text class="cls-15" transform="translate(12.83 10.41)"><tspan x="0" y="0">4</tspan></text>
      </g>
    </g>
  </g>
  <circle class="cls-6" cx="3.1" cy="1.76" r=".68"/>
  <circle class="cls-6" cx="3.01" cy="10.22" r=".68"/>
  <path class="cls-12" d="M.1,1.89s.05.02.1.02.08-.02.11-.06c.03-.04.05-.08.06-.13l.09-.34c.01-.06.02-.1.02-.13,0-.03,0-.06-.03-.08-.02-.02-.04-.03-.07-.03-.04,0-.08.01-.11.04-.04.02-.07.06-.09.1-.02.04-.04.08-.05.12,0,0,0,.01-.01.01h-.02s-.01,0-.01-.02H.06c.01-.05.03-.1.06-.14.03-.05.07-.08.11-.11.04-.03.09-.04.14-.04.05,0,.09.01.13.04.04.02.06.06.08.1.02-.04.05-.07.08-.1.03-.03.07-.04.11-.04.03,0,.06,0,.08.01.03,0,.05.02.07.04.02.02.03.04.03.07,0,.03-.01.06-.03.08-.02.02-.05.04-.08.04-.02,0-.04,0-.05-.02-.01-.01-.02-.03-.02-.05,0-.03,0-.05.03-.07.02-.02.04-.03.07-.04-.02-.02-.06-.03-.1-.03-.04,0-.08.02-.11.06-.03.04-.05.08-.06.13l-.09.34c-.01.05-.02.09-.02.13,0,.03,0,.06.03.08.02.02.04.03.07.03.06,0,.11-.03.16-.08.05-.05.08-.11.09-.17,0,0,0-.01.01-.01h.02s0,0,.01,0c0,0,0,0,0,.01h0c-.02.08-.06.15-.11.21-.06.06-.12.09-.2.09-.05,0-.09-.01-.13-.04s-.06-.06-.08-.1c-.02.04-.05.07-.08.1-.03.03-.07.04-.11.04-.03,0-.06,0-.08-.01-.03,0-.05-.02-.07-.04-.02-.02-.03-.04-.03-.07s.01-.06.03-.08c.02-.02.05-.04.08-.04.02,0,.04,0,.05.02.01.01.02.03.02.05,0,.03,0,.05-.03.07-.02.02-.04.03-.07.04Z"/>
  <path class="cls-12" d="M28.75,2.19c-.06,0-.12-.01-.16-.04-.05-.03-.08-.07-.11-.11-.02-.05-.04-.1-.04-.16,0-.09.02-.17.07-.26.05-.08.11-.15.19-.21.08-.05.16-.08.25-.08.05,0,.09,0,.13.02.04.02.07.04.1.07.03.03.05.06.06.1.01.04.02.08.02.13,0,.07-.01.13-.04.2-.03.06-.07.12-.12.17-.05.05-.1.09-.17.13-.06.03-.13.05-.19.05ZM28.75,2.14c.06,0,.11-.02.16-.06.05-.04.09-.09.12-.15.03-.06.05-.12.07-.19.02-.06.02-.12.02-.18s-.01-.1-.04-.14c-.03-.04-.07-.06-.12-.06-.07,0-.14.03-.2.1-.06.06-.1.14-.13.23-.03.09-.04.17-.04.24,0,.06.01.1.04.14.03.04.07.06.12.06Z"/>
  <path class="cls-12" d="M28.53,10.89c-.07,0-.12-.02-.17-.05-.05-.03-.09-.07-.11-.12-.03-.05-.04-.11-.04-.18,0-.09.03-.19.08-.28.05-.09.12-.16.2-.22.09-.06.17-.08.27-.08.05,0,.1,0,.14.03.04.02.07.04.1.07.03.03.05.07.07.11.02.04.02.09.02.14,0,.07-.02.14-.05.21-.03.07-.07.13-.12.19-.05.06-.11.1-.18.13-.07.03-.13.05-.2.05ZM28.54,10.83c.06,0,.11-.02.17-.06.05-.04.09-.09.12-.16.03-.06.06-.13.07-.2.02-.07.03-.13.03-.19s-.01-.11-.04-.15c-.03-.04-.07-.06-.13-.06-.08,0-.15.03-.21.1-.06.07-.11.15-.14.24-.03.09-.04.18-.04.26,0,.06.01.11.04.15.03.04.07.06.13.06Z"/>
  <path class="cls-12" d="M29.22,11.14h0s.11-.44.11-.44c0-.03.01-.05.01-.07,0-.04-.01-.06-.04-.06-.03,0-.05.02-.07.05s-.03.08-.04.14c0,0,0,0,0,0,0,0,0,0,0,0h-.02s0,0,0,0c0,0,0,0,0,0,.01-.04.02-.08.03-.11,0-.03.02-.05.04-.08.02-.02.05-.04.07-.04.04,0,.07.01.1.03.03.02.04.05.04.09.03-.04.06-.07.1-.09.04-.02.08-.03.12-.03.04,0,.08.01.12.04.03.02.05.06.05.1.03-.04.06-.08.1-.1.04-.02.08-.04.13-.04s.09.01.12.04c.03.03.04.06.04.11,0,.04,0,.09-.03.14-.02.06-.04.12-.06.19-.01.03-.02.06-.02.09,0,.03.01.04.04.04.04,0,.07-.02.09-.06.02-.04.04-.08.05-.13,0,0,0,0,.01,0h.02s0,0,0,0c0,0,0,0,0,0h0c-.01.06-.04.11-.07.15-.03.05-.07.07-.12.07-.03,0-.06-.01-.09-.04s-.04-.05-.04-.08c0-.02,0-.04,0-.06.03-.07.05-.13.07-.19.02-.06.03-.11.03-.15,0-.03,0-.05-.02-.07-.01-.02-.03-.03-.05-.03-.05,0-.1.02-.14.05-.04.03-.07.07-.1.12,0,.01,0,.02,0,.02l-.09.37s0,.02-.02.03c-.01,0-.02.01-.04.01-.01,0-.02,0-.03-.01,0,0-.01-.02-.01-.03h0s.09-.38.09-.38c.01-.04.02-.07.02-.1,0-.03,0-.05-.02-.07-.01-.02-.03-.03-.06-.03-.03,0-.07,0-.1.02-.03.01-.06.04-.08.06-.02.03-.04.06-.06.09l-.1.39s-.01.02-.02.03c-.01,0-.02.01-.04.01s-.02,0-.03-.01c0,0-.01-.02-.01-.03Z"/>
  <g>
    <path class="cls-12" d="M.1,10.71s.06.03.11.03.08-.02.12-.06c.03-.04.06-.09.07-.14l.1-.37c.02-.07.02-.12.02-.14,0-.04,0-.07-.03-.09-.02-.03-.05-.04-.08-.04-.04,0-.09.01-.13.04-.04.03-.07.06-.1.11-.03.04-.05.09-.06.13,0,0,0,.01-.02.01h-.03s-.02,0-.02-.02H.06c.01-.06.04-.11.07-.16.03-.05.07-.09.12-.12.05-.03.1-.05.16-.05.05,0,.1.01.14.04.04.03.07.07.09.11.02-.04.06-.08.09-.11.04-.03.08-.04.12-.04.03,0,.06,0,.09.02.03.01.06.03.08.05.02.02.03.05.03.08,0,.04-.01.07-.03.09-.02.03-.05.04-.09.04-.02,0-.04,0-.06-.02-.02-.02-.02-.03-.02-.06,0-.03.01-.05.03-.08.02-.02.05-.04.07-.04-.03-.02-.06-.03-.11-.03-.05,0-.09.02-.12.06-.03.04-.06.09-.07.14l-.1.37c-.01.06-.02.1-.02.14,0,.04,0,.07.03.09.02.03.05.04.08.04.07,0,.13-.03.18-.09.05-.06.09-.12.1-.19,0,0,0-.01.02-.01h.03s0,0,.01,0c0,0,0,0,0,.01h0c-.02.09-.06.17-.13.23-.06.07-.14.1-.22.1-.05,0-.1-.01-.14-.04s-.07-.07-.09-.11c-.02.04-.05.08-.09.11-.04.03-.08.05-.12.05-.03,0-.06,0-.09-.02-.03-.01-.06-.03-.08-.05-.02-.02-.03-.05-.03-.08s.01-.06.03-.09c.02-.03.05-.04.08-.04.02,0,.04,0,.06.02.02.01.02.03.02.06,0,.03,0,.05-.03.08-.02.02-.04.04-.07.04Z"/>
    <path class="cls-14" d="M1.48,11.6c-.1,0-.16-.07-.16-.17,0-.04.03-.11.05-.16.03-.09.12-.33.14-.38,0-.02.02-.06.02-.11,0-.07-.03-.07-.05-.07-.07,0-.15.06-.2.25,0,.03-.01.04-.03.04,0,0-.02,0-.02-.02,0-.02.08-.32.26-.32.1,0,.16.08.16.17,0,.04,0,.07-.03.11-.02.06-.02.06-.04.12l-.08.22c-.05.13-.06.15-.06.21,0,.05.01.07.05.07.1,0,.17-.13.2-.25,0-.03,0-.04.03-.04,0,0,.02,0,.02.02,0,.02-.07.32-.26.32ZM1.61,10.4s-.08-.03-.08-.07c0-.06.05-.11.11-.11.05,0,.07.03.07.07,0,.06-.06.11-.11.11Z"/>
  </g>
  <path class="cls-14" d="M1.35,2.57c-.14,0-.25-.08-.25-.2,0-.05.04-.07.07-.07.04,0,.07.02.07.07,0,.05-.04.07-.08.07.04.07.14.1.19.1s.14-.04.14-.21c0-.12-.05-.21-.15-.21h-.05s-.03,0-.03-.01c0-.01,0-.01.02-.02,0,0,.04,0,.05,0,.03,0,.07,0,.11-.07.03-.05.04-.13.04-.14,0-.11-.07-.14-.12-.14-.05,0-.13.02-.17.08.02,0,.08,0,.08.06,0,.04-.02.06-.06.06-.04,0-.06-.02-.06-.07,0-.09.09-.17.22-.17s.23.07.23.17-.07.19-.17.22c.13.03.21.12.21.23,0,.13-.11.24-.27.24Z"/>
  <path class="cls-14" d="M29.57,2.92c-.14,0-.25-.08-.25-.2,0-.05.04-.07.07-.07.04,0,.07.02.07.07,0,.05-.04.07-.08.07.04.07.14.1.19.1s.14-.04.14-.21c0-.12-.05-.21-.15-.21h-.05s-.03,0-.03-.01c0-.01,0-.01.02-.02,0,0,.04,0,.05,0,.03,0,.07,0,.11-.07.03-.05.04-.13.04-.14,0-.11-.07-.14-.12-.14-.05,0-.13.02-.17.08.02,0,.08,0,.08.06,0,.04-.02.06-.06.06-.04,0-.06-.02-.06-.07,0-.09.09-.17.22-.17s.23.07.23.17-.07.19-.17.22c.13.03.21.12.21.23,0,.13-.11.24-.27.24Z"/>
</svg>